<?xml version="1.0" encoding="UTF-8"?>
<svg id="uuid-70d351c3-9d52-4d9c-bf87-a1f0a8eb5856" xmlns="http://www.w3.org/2000/svg" xmlns:xlink="http://www.w3.org/1999/xlink" viewBox="0 0 35 36">
<title>Microsoft Word 2025 logo - Brandlogos.net</title><defs><radialGradient id="uuid-ed2a8eb8-fce0-4bde-952b-86ec8e241ee9" cx="-619.29" cy="488.84" fx="-619.29" fy="488.84" r="1" gradientTransform="translate(29495.74 9885.89) scale(47.57 -20.15)" gradientUnits="userSpaceOnUse"><stop offset=".18" stop-color="#1657f4"/><stop offset=".57" stop-color="#0036c4"/></radialGradient><linearGradient id="uuid-07943580-643e-4611-b102-f1fc868bd013" x1="5" y1="97" x2="27.97" y2="97" gradientTransform="translate(0 116) scale(1 -1)" gradientUnits="userSpaceOnUse"><stop offset="0" stop-color="#66c0ff"/><stop offset=".26" stop-color="#0094f0"/></linearGradient><radialGradient id="uuid-4901e95c-54b1-4d8b-bf14-0e9c7bb90b87" cx="-637.72" cy="517.98" fx="-637.72" fy="517.98" r="1" gradientTransform="translate(-40017.96 -12225.34) rotate(133.55) scale(29.36 -72.32)" gradientUnits="userSpaceOnUse"><stop offset=".14" stop-color="#d471ff"/><stop offset=".83" stop-color="#509df5" stop-opacity="0"/></radialGradient><radialGradient id="uuid-9988b974-07fe-47ee-9919-3660c45bf150" cx="-611.76" cy="514.18" fx="-611.76" fy="514.18" r="1" gradientTransform="translate(-52234.57 11411.47) rotate(90) scale(18.62 -101.65)" gradientUnits="userSpaceOnUse"><stop offset=".28" stop-color="#4f006f" stop-opacity="0"/><stop offset="1" stop-color="#4f006f"/></radialGradient><linearGradient id="uuid-0983714d-6efe-4203-b8da-170f38fe7225" x1="5" y1="107.22" x2="35" y2="106.72" gradientTransform="translate(0 116) scale(1 -1)" gradientUnits="userSpaceOnUse"><stop offset="0" stop-color="#9deaff"/><stop offset=".2" stop-color="#3bd5ff"/></linearGradient><radialGradient id="uuid-ca2eb1c3-4f62-4719-880a-75c33625c87b" cx="-650.27" cy="515.34" fx="-650.27" fy="515.34" r="1" gradientTransform="translate(-26921.47 -31089.42) rotate(166.85) scale(29.49 -70.64)" gradientUnits="userSpaceOnUse"><stop offset=".06" stop-color="#e4a7fe"/><stop offset=".54" stop-color="#e4a7fe" stop-opacity="0"/></radialGradient><radialGradient id="uuid-b0298544-4529-40e9-8c27-57a5501fe390" cx="-600.8" cy="515.58" fx="-600.8" fy="515.58" r="1" gradientTransform="translate(1363.5 17878.99) rotate(45) scale(22.63 -22.63)" gradientUnits="userSpaceOnUse"><stop offset=".08" stop-color="#367af2"/><stop offset=".87" stop-color="#001a8f"/></radialGradient><radialGradient id="uuid-6f25899f-fcb5-4141-ab07-b61a25bf93ff" cx="-598.04" cy="557.24" fx="-598.04" fy="557.24" r="1" gradientTransform="translate(-7105.12 6724.6) rotate(90) scale(11.2 -12.77)" gradientUnits="userSpaceOnUse"><stop offset=".59" stop-color="#2763e5" stop-opacity="0"/><stop offset=".97" stop-color="#58aafe"/></radialGradient></defs><path d="M5,27.09l14-17.09,16,11.11v11.39c0,1.93-1.57,3.5-3.5,3.5H11c-3.31,0-6-2.69-6-6v-2.91Z" style="fill:url(#uuid-ed2a8eb8-fce0-4bde-952b-86ec8e241ee9);"/><path d="M5,15.04c0-2.49,2.01-4.5,4.5-4.5h20.39l5.11-2.54v12.5c0,1.93-1.57,3.5-3.5,3.5H11c-3.31,0-6,2.69-6,6v-14.96Z" style="fill:url(#uuid-07943580-643e-4611-b102-f1fc868bd013);"/><path d="M5,15.04c0-2.49,2.01-4.5,4.5-4.5h20.39l5.11-2.54v12.5c0,1.93-1.57,3.5-3.5,3.5H11c-3.31,0-6,2.69-6,6v-14.96Z" style="fill:url(#uuid-4901e95c-54b1-4d8b-bf14-0e9c7bb90b87); fill-opacity:.6;"/><path d="M5,15.04c0-2.49,2.01-4.5,4.5-4.5h20.39l5.11-2.54v12.5c0,1.93-1.57,3.5-3.5,3.5H11c-3.31,0-6,2.69-6,6v-14.96Z" style="fill:url(#uuid-9988b974-07fe-47ee-9919-3660c45bf150); fill-opacity:.1;"/><path d="M5,6C5,2.69,7.69,0,11,0h20.5c1.93,0,3.5,1.57,3.5,3.5v5c0,1.93-1.57,3.5-3.5,3.5H11c-3.31,0-6,2.69-6,6V6Z" style="fill:url(#uuid-0983714d-6efe-4203-b8da-170f38fe7225);"/><path d="M5,6C5,2.69,7.69,0,11,0h20.5c1.93,0,3.5,1.57,3.5,3.5v5c0,1.93-1.57,3.5-3.5,3.5H11c-3.31,0-6,2.69-6,6V6Z" style="fill:url(#uuid-ca2eb1c3-4f62-4719-880a-75c33625c87b); fill-opacity:.8;"/><rect y="17" width="16" height="16" rx="3.25" ry="3.25" style="fill:url(#uuid-b0298544-4529-40e9-8c27-57a5501fe390);"/><rect y="17" width="16" height="16" rx="3.25" ry="3.25" style="fill:url(#uuid-6f25899f-fcb5-4141-ab07-b61a25bf93ff); fill-opacity:.65;"/><path d="M13.49,20.43l-1.97,9.14h-2.35s-1.16-5.48-1.16-5.48l-1.22,5.49h-2.38l-1.89-9.14h1.94l1.17,6.03,1.16-6.03h2.38l1.21,6.03,1.14-6.03h1.97Z" style="fill:#fff;"/></svg>